<svg xmlns="http://www.w3.org/2000/svg" xmlns:xlink="http://www.w3.org/1999/xlink" preserveAspectRatio="xMidYMid" width="19" height="14" viewBox="0 0 19 14">
  <defs>
    <style>
      .cls-1 {
        fill: #8dc63f;
        fill-rule: evenodd;
      }
    </style>
  </defs>
  <path d="M17.253,0.344 C17.420,0.122 17.656,0.009 17.963,0.009 C18.267,0.009 18.532,0.122 18.754,0.344 C18.920,0.567 19.004,0.833 19.004,1.139 C19.004,1.446 18.892,1.683 18.671,1.850 L6.496,13.733 C6.439,13.846 6.342,13.915 6.203,13.943 C6.064,13.971 5.939,13.984 5.828,13.984 C5.661,13.984 5.508,13.971 5.370,13.943 C5.230,13.915 5.132,13.846 5.077,13.733 L0.324,8.964 C0.102,8.741 -0.010,8.476 -0.010,8.169 C-0.010,7.862 0.102,7.624 0.324,7.457 C0.490,7.235 0.727,7.122 1.034,7.122 C1.338,7.122 1.602,7.235 1.825,7.457 L5.828,11.474 L17.253,0.344 L17.253,0.344 Z" class="cls-1"/>
</svg>
