<svg id="Layer_1" data-name="Layer 1" xmlns="http://www.w3.org/2000/svg" viewBox="0 0 26.66 26.66"><defs><style>.cls-1{fill:#69bc45;}</style></defs><title>check_icon</title><path class="cls-1" d="M17,3.67A13.33,13.33,0,1,0,30.33,17,13.33,13.33,0,0,0,17,3.67Zm0,25.59A12.26,12.26,0,1,1,29.26,17,12.28,12.28,0,0,1,17,29.26Z" transform="translate(-3.67 -3.67)"/><path class="cls-1" d="M23.67,12.24l-8.56,8.3-3-3A0.8,0.8,0,1,0,11,18.67l3.56,3.56a0.8,0.8,0,0,0,1.12,0l9.12-8.85a0.8,0.8,0,0,0-1.11-1.15h0Z" transform="translate(-3.67 -3.67)"/></svg>