<svg id="Layer_1" data-name="Layer 1" xmlns="http://www.w3.org/2000/svg" viewBox="0 0 26.66 26.66"><defs><style>.cls-1{fill:#f59120;}</style></defs><title>close_icon</title><path class="cls-1" d="M7.58,7.81a13.33,13.33,0,1,0,18.85,0A13.33,13.33,0,0,0,7.58,7.81ZM25.67,25.91a12.26,12.26,0,1,1,0-17.34A12.28,12.28,0,0,1,25.67,25.91Z" transform="translate(-3.67 -3.91)"/><path class="cls-1" d="M11.72,11.21L11,12l5.28,5.28L11,22.49l0.75,0.75L17,18l5.25,5.25L23,22.49l-5.25-5.25L23,12l-0.75-.75L17,16.48Z" transform="translate(-3.67 -3.91)"/></svg>