<svg xmlns="http://www.w3.org/2000/svg" xmlns:xlink="http://www.w3.org/1999/xlink" preserveAspectRatio="xMidYMid" width="18" height="26" viewBox="0 0 18 26">
  <defs>
    <style>
      .cls-1 {
        fill: #a8a8a8;
        fill-rule: evenodd;
      }
    </style>
  </defs>
  <path d="M-0.008,26.005 L-0.008,12.478 L2.761,12.478 L2.761,6.505 C2.761,5.607 2.930,4.768 3.267,3.987 C3.603,3.206 4.052,2.523 4.614,1.937 C5.175,1.352 5.829,0.883 6.578,0.532 C7.327,0.181 8.131,0.005 8.992,0.005 C9.853,0.005 10.657,0.181 11.406,0.532 C12.154,0.883 12.809,1.352 13.371,1.937 C13.932,2.523 14.381,3.206 14.718,3.987 C15.055,4.768 15.223,5.607 15.223,6.505 L15.223,12.478 L17.992,12.478 L17.992,26.005 L-0.008,26.005 ZM14.269,6.505 C14.269,5.764 14.128,5.061 13.848,4.397 C13.567,3.733 13.183,3.148 12.697,2.640 C12.248,2.133 11.695,1.732 11.041,1.440 C10.386,1.147 9.703,1.000 8.992,1.000 C8.281,1.000 7.598,1.147 6.943,1.440 C6.288,1.732 5.736,2.133 5.287,2.640 C4.801,3.148 4.417,3.733 4.137,4.397 C3.856,5.061 3.716,5.764 3.716,6.505 L3.716,12.478 L14.269,12.478 L14.269,6.505 ZM17.038,13.532 L0.946,13.532 L0.946,25.009 L17.038,25.009 L17.038,13.532 ZM7.366,18.770 C7.292,18.654 7.238,18.531 7.202,18.401 C7.165,18.271 7.147,18.140 7.147,18.010 C7.147,17.807 7.187,17.615 7.267,17.434 C7.347,17.253 7.453,17.097 7.584,16.967 C7.715,16.822 7.871,16.714 8.054,16.641 C8.236,16.569 8.429,16.533 8.633,16.533 C8.837,16.533 9.030,16.569 9.212,16.641 C9.394,16.714 9.558,16.822 9.704,16.967 C9.835,17.097 9.940,17.253 10.021,17.434 C10.101,17.615 10.141,17.807 10.141,18.010 C10.141,18.140 10.119,18.271 10.075,18.401 C10.031,18.531 9.980,18.654 9.922,18.770 C9.849,18.872 9.766,18.970 9.671,19.064 C9.576,19.158 9.478,19.241 9.376,19.313 L10.141,21.529 L7.147,21.529 L7.934,19.313 C7.817,19.241 7.711,19.161 7.617,19.075 C7.522,18.987 7.438,18.886 7.366,18.770 Z" class="cls-1"/>
</svg>
