<?xml version="1.0" encoding="utf-8"?>
<!-- Generator: Adobe Illustrator 19.2.0, SVG Export Plug-In . SVG Version: 6.00 Build 0)  -->
<svg version="1.1" id="Layer_1" xmlns="http://www.w3.org/2000/svg" xmlns:xlink="http://www.w3.org/1999/xlink" x="0px" y="0px"
	 viewBox="0 0 64.2 20" style="enable-background:new 0 0 64.2 20;" xml:space="preserve">
<style type="text/css">
	.st0{fill:url(#SVGID_1_);}
	.st1{fill:url(#SVGID_2_);}
	.st2{fill:#FFFFFF;}
	.st3{font-family:'OpenSans';}
	.st4{font-size:9.4188px;}
</style>
<g>
	<g>
		<linearGradient id="SVGID_1_" gradientUnits="userSpaceOnUse" x1="32" y1="19.3046" x2="32" y2="1.0778">
			<stop  offset="0" style="stop-color:#67C10B"/>
			<stop  offset="1" style="stop-color:#0E950B"/>
		</linearGradient>
		<path class="st0" d="M61,19.3H3c-1.1,0-2-0.9-2-2V3.1c0-1.1,0.9-2,2-2h58c1.1,0,2,0.9,2,2v14.2C63,18.4,62.1,19.3,61,19.3z"/>
		<linearGradient id="SVGID_2_" gradientUnits="userSpaceOnUse" x1="47.4999" y1="19.3045" x2="47.4999" y2="1.0778">
			<stop  offset="0" style="stop-color:#6E6E6E"/>
			<stop  offset="1" style="stop-color:#4F4F4F"/>
		</linearGradient>
		<path class="st1" d="M62,1.1H32v18.2h30c0.6,0,1-0.5,1-1V2.1C63,1.5,62.5,1.1,62,1.1z"/>
	</g>
	<text transform="matrix(1 0 0 1 9.032 13.4358)" class="st2 st3 st4">Yes</text>
</g>
</svg>
