<svg id="Drawn_down_icon" data-name="Drawn down icon" xmlns="http://www.w3.org/2000/svg" width="28" height="28" viewBox="0 0 28 28">
  <defs>
    <style>
      .cls-1 {
        fill: #3a3a3a;
      }

      .cls-1, .cls-2 {
        fill-rule: evenodd;
      }

      .cls-2 {
        fill: #8dc63f;
      }
    </style>
  </defs>
  <path id="money" class="cls-1" d="M25.035,93.514a2.763,2.763,0,0,0,1.132-.239,3.183,3.183,0,0,0,1.609-1.614,2.787,2.787,0,0,0,.238-1.136,2.929,2.929,0,0,0-.238-1.2,3.165,3.165,0,0,0-.655-0.956,3.133,3.133,0,0,0-.953-0.657,2.747,2.747,0,0,0-1.132-.239,2.888,2.888,0,0,0-1.192.239,3.182,3.182,0,0,0-1.609,1.614,2.911,2.911,0,0,0-.238,1.2,2.769,2.769,0,0,0,.238,1.136,3.183,3.183,0,0,0,1.609,1.614,2.9,2.9,0,0,0,1.192.239h0Zm0-5.021a2.063,2.063,0,0,1,.745.149,2.342,2.342,0,0,1,1.073,1.076,2.246,2.246,0,0,1,.149.807,2.019,2.019,0,0,1-.149.777,1.491,1.491,0,0,1-.447.6,1.458,1.458,0,0,1-.626.448,2.082,2.082,0,0,1-.745.149,2.227,2.227,0,0,1-.8-0.149A1.446,1.446,0,0,1,23.6,91.9a1.474,1.474,0,0,1-.447-0.6,2,2,0,0,1-.149-0.777,2.227,2.227,0,0,1,.149-0.807,2.343,2.343,0,0,1,1.073-1.076,2.208,2.208,0,0,1,.8-0.149h0ZM13,98H37.013v-15H13V98h0Zm23-3.347V97.04H14.011V83.95H36v10.7h0ZM34.033,81.977h0.953V80.961H11.031V96.024h0.953V81.977H34.033Zm-2.026-2.032H33.02V78.989H9v15h1.013V79.945H32.007ZM15.5,95.964V95.008h2.98v0.956H15.5Zm0-9.982V84.966h2.98v1.016H15.5Zm16.03,9.982V95.008h2.98v0.956H31.53Zm0-9.982V84.966h2.98v1.016H31.53Z" transform="translate(-9 -79)"/>
  <path id="arrow" class="cls-2" d="M22.747,104.361L20,101.727l0.688-.659,4.813,4.61,4.813-4.664L31,101.727,25.5,107l-0.687-.658Z" transform="translate(-9 -79)"/>
</svg>
