<?xml version="1.0" encoding="utf-8"?>
<!-- Generator: Adobe Illustrator 17.1.0, SVG Export Plug-In . SVG Version: 6.00 Build 0)  -->
<!DOCTYPE svg PUBLIC "-//W3C//DTD SVG 1.1//EN" "http://www.w3.org/Graphics/SVG/1.1/DTD/svg11.dtd">
<svg version="1.1" id="Layer_1" xmlns="http://www.w3.org/2000/svg" xmlns:xlink="http://www.w3.org/1999/xlink" x="0px" y="0px"
	 viewBox="0 0 2109 854" enable-background="new 0 0 2109 854" xml:space="preserve">
<path fill="#8DC63F" d="M1244.9,615.1c0-11.7,2.7-22.7,7.3-32.6H210.6c-20.2,0-36.6,15.2-36.6,32.6c0,17.4,16.4,32.6,36.6,32.6
	h1041.7C1247.6,637.7,1244.9,626.7,1244.9,615.1z"/>
<path fill="#8DC63F" d="M1889.7,582.5h-498.2c4.6,9.9,7.3,20.9,7.3,32.6c0,11.7-2.7,22.7-7.3,32.6h498.2c20.2,0,36.6-15.2,36.6-32.6
	C1926.3,597.6,1909.9,582.5,1889.7,582.5z"/>
<path fill="#FFFFFF" d="M437.3,435.9c-9,13.6-18.1,26.6-31.6,39.2c-22.6,21.1-56.8,37.2-99,37.2c-77.9,0-132.6-49.7-132.6-135.7
	c0-63.3,31.2-144.7,134.7-144.7c15.6,0,60.8,1.5,94.5,37.7c34.1,36.7,36.2,87.9,37.2,117.6H252.9c-0.5,32.7,18.1,65.3,59.8,65.3
	c42.2,0,56.8-27.6,66.3-46.2L437.3,435.9z M360.4,338.9c-1.5-11.1-3.5-25.6-14.6-37.2c-9.5-9.6-24.1-14.6-37.7-14.6
	c-18.6,0-31.6,9-39.2,17.1c-10.6,11.5-13.1,23.6-15.6,34.7H360.4L360.4,338.9z"/>
<path fill="#FFFFFF" d="M437.4,240.5h81.4C550.9,357,556.4,381.1,565,431.4c10.6-58.3,12.1-64.8,27.7-126.6l16.1-64.3h79.4
	l-84.9,262.3h-80.9L437.4,240.5z"/>
<path fill="#FFFFFF" d="M950.2,435.9c-9,13.6-18.1,26.6-31.6,39.2c-22.6,21.1-56.8,37.2-99,37.2c-77.9,0-132.7-49.7-132.7-135.7
	c0-63.3,31.1-144.7,134.7-144.7c15.6,0,60.8,1.5,94.4,37.7c34.2,36.7,36.2,87.9,37.2,117.6H765.8c-0.5,32.7,18.1,65.3,59.8,65.3
	c42.2,0,56.8-27.6,66.3-46.2L950.2,435.9z M873.4,338.9c-1.5-11.1-3.5-25.6-14.6-37.2c-9.5-9.6-24.1-14.6-37.7-14.6
	c-18.6,0-31.7,9-39.2,17.1c-10.5,11.5-13.1,23.6-15.6,34.7H873.4L873.4,338.9z"/>
<path fill="#FFFFFF" d="M1062.5,267.6c17.1-14.6,35.7-26.1,75.9-30.1v68.3l-25.6,4c-37.2,6.5-48.2,12.1-48.2,45.2v147.7h-77.4V239.9
	h75.3V267.6z"/>
<rect x="1173.5" y="148" fill="#FFFFFF" width="77.4" height="354.7"/>
<rect x="1283.7" y="239.9" fill="#FFFFFF" width="76.4" height="262.8"/>
<path fill="#FFFFFF" d="M1472.1,264.1c7.6-8,12.6-14,26.1-20.6c12.1-5,29.2-9.6,47.7-9.6c15.6,0,33.1,3,46.7,10.6
	c27.6,14.6,34.7,38.2,34.7,78.9v179.4h-76.9V355c0-23.6-0.5-32.2-3.5-39.2c-6-14.1-19.6-20.1-34.6-20.1c-40.7,0-40.7,32.7-40.7,65.3
	v141.7h-77.4V241h77.9L1472.1,264.1L1472.1,264.1z"/>
<path fill="#FFFFFF" d="M1923.2,435.9c-9,13.6-18.1,26.6-31.7,39.2c-22.6,21.1-56.8,37.2-99,37.2c-77.9,0-132.6-49.7-132.6-135.7
	c0-63.3,31.2-144.7,134.7-144.7c15.6,0,60.8,1.5,94.4,37.7c34.2,36.7,36.2,87.9,37.2,117.6h-187.4c-0.5,32.7,18.1,65.3,59.8,65.3
	c42.2,0,56.8-27.6,66.3-46.2L1923.2,435.9z M1846.4,338.9c-1.5-11.1-3.5-25.6-14.6-37.2c-9.5-9.6-24.1-14.6-37.7-14.6
	c-18.6,0-31.7,9-39.2,17.1c-10.6,11.5-13,23.6-15.6,34.7H1846.4L1846.4,338.9z"/>
<path fill="#FFFFFF" d="M1278,613.4c0.9-24.2,21.3-43.2,45.5-42.3c24.2,0.9,43.2,21.3,42.3,45.5c-0.9,24.2-21.3,43.2-45.5,42.3
	C1296,658.1,1277.1,637.7,1278,613.4"/>
</svg>
