<svg id="Repay_icon" data-name="Repay icon" xmlns="http://www.w3.org/2000/svg" width="28" height="28" viewBox="0 0 28 28">
  <defs>
    <style>
      .cls-1 {
        fill: #3a3a3a;
      }

      .cls-1, .cls-2 {
        fill-rule: evenodd;
      }

      .cls-2 {
        fill: #828282;
      }
    </style>
  </defs>
  <path id="money" class="cls-1" d="M25.035,216.514a2.775,2.775,0,0,0,1.132-.239,3.186,3.186,0,0,0,1.609-1.614,2.788,2.788,0,0,0,.238-1.136,2.924,2.924,0,0,0-.238-1.195,3.159,3.159,0,0,0-.655-0.957,3.121,3.121,0,0,0-.953-0.657,2.742,2.742,0,0,0-1.132-.239,2.883,2.883,0,0,0-1.192.239,3.177,3.177,0,0,0-1.609,1.614A2.906,2.906,0,0,0,22,213.525a2.771,2.771,0,0,0,.238,1.136,3.187,3.187,0,0,0,1.609,1.614,2.916,2.916,0,0,0,1.192.239h0Zm0-5.021a2.06,2.06,0,0,1,.745.149,2.338,2.338,0,0,1,1.073,1.076,2.248,2.248,0,0,1,.149.807,2.02,2.02,0,0,1-.149.777,1.494,1.494,0,0,1-.447.6,1.456,1.456,0,0,1-.626.448,2.081,2.081,0,0,1-.745.149,2.227,2.227,0,0,1-.8-0.149A1.445,1.445,0,0,1,23.6,214.9a1.477,1.477,0,0,1-.447-0.6,2,2,0,0,1-.149-0.777,2.229,2.229,0,0,1,.149-0.807,2.339,2.339,0,0,1,1.073-1.076,2.205,2.205,0,0,1,.8-0.149h0ZM13,221H37.013v-15H13v15h0Zm23-3.348v2.391H14.011V206.95H36v10.7h0Zm-20.5,1.315v-0.956h2.98v0.956H15.5Zm0-9.982v-1.016h2.98v1.016H15.5Zm16.03,9.982v-0.956h2.98v0.956H31.53Zm0-9.982v-1.016h2.98v1.016H31.53Z" transform="translate(-11 -195)"/>
  <path id="arrow" class="cls-2" d="M28.253,199.639L31,202.273l-0.687.659-4.812-4.61-4.812,4.664L20,202.273l5.5-5.268,0.688,0.658Z" transform="translate(-11 -195)"/>
</svg>
