<svg xmlns="http://www.w3.org/2000/svg" width="28" height="28" viewBox="0 0 28 28">
  <defs>
    <style>
      .cls-1 {
        fill: #8dc63f;
        fill-rule: evenodd;
      }
    </style>
  </defs>
  <path id="tick_icon" data-name="tick icon" class="cls-1" d="M33.247,144.325a0.833,0.833,0,0,1,.709-0.336,1.084,1.084,0,0,1,.792.336,1.3,1.3,0,0,1,.25.8,0.844,0.844,0,0,1-.333.713L22.491,157.742a0.388,0.388,0,0,1-.292.21,1.844,1.844,0,0,1-.375.042,2.241,2.241,0,0,1-.458-0.042,0.384,0.384,0,0,1-.292-0.21l-4.753-4.779a1.092,1.092,0,0,1-.333-0.8,1.16,1.16,0,0,1,1.043-1.049,1.084,1.084,0,0,1,.792.336l4,4.025,11.423-11.153h0Z" transform="translate(-11.5 -137)"/>
</svg>
