<svg id="Rollover_icon" data-name="Rollover icon" xmlns="http://www.w3.org/2000/svg" width="28" height="28" viewBox="0 0 28 28">
  <defs>
    <style>
      .cls-1 {
        fill: #8dc63f;
        fill-rule: evenodd;
      }
    </style>
  </defs>
  <path id="Rollover" class="cls-1" d="M27.085,317.822v-0.83a9.716,9.716,0,0,1,3.863.781,9.462,9.462,0,0,1,3.134,2.149,10.038,10.038,0,0,1,2.138,3.2,10.078,10.078,0,0,1,0,7.763,10.042,10.042,0,0,1-2.138,3.2,9.445,9.445,0,0,1-3.134,2.148,10.006,10.006,0,0,1-7.751,0,10.1,10.1,0,0,1-5.3-5.322,9.661,9.661,0,0,1-.777-3.858H12.992l4.52-7.91,4.568,7.91H17.949a8.644,8.644,0,0,0,.729,3.516,10.035,10.035,0,0,0,1.944,2.93,9.982,9.982,0,0,0,2.916,1.953,8.9,8.9,0,0,0,7.071,0,9.166,9.166,0,0,0,4.86-4.883,9.367,9.367,0,0,0,0-7.129,9.166,9.166,0,0,0-4.86-4.883,8.71,8.71,0,0,0-3.523-.732h0ZM14.4,326.22H20.67l-3.159-5.42-3.11,5.42h0Z" transform="translate(-11 -313)"/>
</svg>
