<?xml version="1.0" encoding="utf-8"?>
<!-- Generator: Adobe Illustrator 18.1.1, SVG Export Plug-In . SVG Version: 6.00 Build 0)  -->
<!DOCTYPE svg PUBLIC "-//W3C//DTD SVG 1.1//EN" "http://www.w3.org/Graphics/SVG/1.1/DTD/svg11.dtd">
<svg version="1.1" id="Layer_1" xmlns="http://www.w3.org/2000/svg" xmlns:xlink="http://www.w3.org/1999/xlink" x="0px" y="0px"
	 width="21.5px" height="21.5px" viewBox="0 0 21.5 21.5" enable-background="new 0 0 21.5 21.5" xml:space="preserve">
<g>
	<path fill="#8EC640" d="M10.8,0C4.8,0,0,4.8,0,10.8c0,5.9,4.8,10.8,10.8,10.8c5.9,0,10.8-4.8,10.8-10.8C21.5,4.8,16.7,0,10.8,0
		L10.8,0z M10.8,20.6c-5.4,0-9.8-4.4-9.8-9.8C1,5.4,5.4,1,10.8,1c5.4,0,9.8,4.4,9.8,9.8C20.6,16.2,16.2,20.6,10.8,20.6L10.8,20.6z
		 M10.8,20.6"/>
	<path fill="#8EC640" d="M7.5,3.7L7.1,2.9L6.6,3.1L7,3.9C7.2,3.8,7.3,3.8,7.5,3.7L7.5,3.7z M7.5,3.7"/>
	<path fill="#8EC640" d="M2.9,10.9c0-0.2,0-0.3,0-0.5H1.8v1h1.1C2.9,11.3,2.9,11.1,2.9,10.9L2.9,10.9z M2.9,10.9"/>
	<path fill="#8EC640" d="M11.5,2.9V1.8h-1v1.1c0.2,0,0.3,0,0.5,0C11.1,2.9,11.3,2.9,11.5,2.9L11.5,2.9z M11.5,2.9"/>
	<path fill="#8EC640" d="M19.2,7.2L19,6.8l-0.9,0.4c0.1,0.1,0.1,0.3,0.2,0.4L19.2,7.2z M19.2,7.2"/>
	<path fill="#8EC640" d="M15.2,4.1c0.1,0.1,0.3,0.2,0.4,0.3l0.5-0.8l-0.4-0.3L15.2,4.1z M15.2,4.1"/>
	<path fill="#8EC640" d="M3.3,6.2l0.8,0.6c0.1-0.1,0.2-0.3,0.3-0.4L3.6,5.8L3.3,6.2z M3.3,6.2"/>
	<path fill="#8EC640" d="M14.3,18.3l0.6,1.2l0.4-0.2l-0.6-1.2C14.6,18.1,14.4,18.2,14.3,18.3L14.3,18.3z M14.3,18.3"/>
	<path fill="#8EC640" d="M17.3,15.9l1,0.7l0.3-0.4l-1-0.7C17.5,15.6,17.4,15.7,17.3,15.9L17.3,15.9z M17.3,15.9"/>
	<path fill="#8EC640" d="M19,10.4c0,0.2,0,0.3,0,0.5c0,0.2,0,0.3,0,0.5h1.1v-1H19z M19,10.4"/>
	<path fill="#8EC640" d="M10.5,19v1.1h1V19c-0.2,0-0.3,0-0.5,0C10.8,19,10.6,19,10.5,19L10.5,19z M10.5,19"/>
	<path fill="#8EC640" d="M5.8,18.8L6.2,19l0.7-1.1c-0.1-0.1-0.3-0.2-0.4-0.3L5.8,18.8z M5.8,18.8"/>
	<path fill="#8EC640" d="M2.7,15.1l0.2,0.4L4,15c-0.1-0.1-0.2-0.3-0.2-0.4L2.7,15.1z M2.7,15.1"/>
	<path fill="#8EC640" d="M11.3,3.7h-0.7v7.5l-4.1,4.5l0.1,0.1l4-4.3h5.2v-1h-4.6V3.7z M11.3,3.7"/>
</g>
</svg>
