<?xml version="1.0" encoding="utf-8"?>
<!-- Generator: Adobe Illustrator 18.1.0, SVG Export Plug-In . SVG Version: 6.00 Build 0)  -->
<svg version="1.1" id="Layer_1" xmlns="http://www.w3.org/2000/svg" xmlns:xlink="http://www.w3.org/1999/xlink" x="0px" y="0px"
	 viewBox="0 0 44.2 31.5" enable-background="new 0 0 44.2 31.5" xml:space="preserve">
<metadata><?xpacket begin="﻿" id="W5M0MpCehiHzreSzNTczkc9d"?>
<x:xmpmeta xmlns:x="adobe:ns:meta/" x:xmptk="Adobe XMP Core 5.6-c014 79.156821, 2014/08/29-03:07:50        ">
   <rdf:RDF xmlns:rdf="http://www.w3.org/1999/02/22-rdf-syntax-ns#">
      <rdf:Description rdf:about=""
            xmlns:xmpMM="http://ns.adobe.com/xap/1.0/mm/"
            xmlns:stRef="http://ns.adobe.com/xap/1.0/sType/ResourceRef#"
            xmlns:stEvt="http://ns.adobe.com/xap/1.0/sType/ResourceEvent#"
            xmlns:xmp="http://ns.adobe.com/xap/1.0/"
            xmlns:xmpGImg="http://ns.adobe.com/xap/1.0/g/img/"
            xmlns:pdf="http://ns.adobe.com/pdf/1.3/"
            xmlns:dc="http://purl.org/dc/elements/1.1/"
            xmlns:xmpTPg="http://ns.adobe.com/xap/1.0/t/pg/"
            xmlns:stDim="http://ns.adobe.com/xap/1.0/sType/Dimensions#"
            xmlns:xmpG="http://ns.adobe.com/xap/1.0/g/">
         <xmpMM:RenditionClass>proof:pdf</xmpMM:RenditionClass>
         <xmpMM:DocumentID>xmp.did:fe05a5df-e298-410a-bde6-83802ee0d7de</xmpMM:DocumentID>
         <xmpMM:InstanceID>xmp.iid:fe05a5df-e298-410a-bde6-83802ee0d7de</xmpMM:InstanceID>
         <xmpMM:OriginalDocumentID>uuid:c4bf453e-886e-024d-9518-deed0529298e</xmpMM:OriginalDocumentID>
         <xmpMM:DerivedFrom rdf:parseType="Resource">
            <stRef:instanceID>uuid:c189247b-15fe-904a-bf4d-cb69200d1a68</stRef:instanceID>
            <stRef:documentID>uuid:c4bf453e-886e-024d-9518-deed0529298e</stRef:documentID>
            <stRef:originalDocumentID>uuid:c4bf453e-886e-024d-9518-deed0529298e</stRef:originalDocumentID>
            <stRef:renditionClass>proof:pdf</stRef:renditionClass>
         </xmpMM:DerivedFrom>
         <xmpMM:History>
            <rdf:Seq>
               <rdf:li rdf:parseType="Resource">
                  <stEvt:action>saved</stEvt:action>
                  <stEvt:instanceID>xmp.iid:fe05a5df-e298-410a-bde6-83802ee0d7de</stEvt:instanceID>
                  <stEvt:when>2014-12-02T14:48:18Z</stEvt:when>
                  <stEvt:softwareAgent>Adobe Illustrator CC 2014 (Macintosh)</stEvt:softwareAgent>
                  <stEvt:changed>/</stEvt:changed>
               </rdf:li>
            </rdf:Seq>
         </xmpMM:History>
         <xmp:CreateDate>2014-12-02T14:48:18Z</xmp:CreateDate>
         <xmp:CreatorTool>Adobe Illustrator CC 2014 (Macintosh)</xmp:CreatorTool>
         <xmp:ModifyDate>2014-12-02T14:48:18Z</xmp:ModifyDate>
         <xmp:MetadataDate>2014-12-02T14:48:18Z</xmp:MetadataDate>
         <xmp:Thumbnails>
            <rdf:Alt>
               <rdf:li rdf:parseType="Resource">
                  <xmpGImg:width>256</xmpGImg:width>
                  <xmpGImg:height>184</xmpGImg:height>
                  <xmpGImg:format>JPEG</xmpGImg:format>
                  <xmpGImg:image>/9j/4AAQSkZJRgABAgEASABIAAD/7QAsUGhvdG9zaG9wIDMuMAA4QklNA+0AAAAAABAASAAAAAEA&#xA;AQBIAAAAAQAB/+4ADkFkb2JlAGTAAAAAAf/bAIQABgQEBAUEBgUFBgkGBQYJCwgGBggLDAoKCwoK&#xA;DBAMDAwMDAwQDA4PEA8ODBMTFBQTExwbGxscHx8fHx8fHx8fHwEHBwcNDA0YEBAYGhURFRofHx8f&#xA;Hx8fHx8fHx8fHx8fHx8fHx8fHx8fHx8fHx8fHx8fHx8fHx8fHx8fHx8fHx8f/8AAEQgAuAEAAwER&#xA;AAIRAQMRAf/EAaIAAAAHAQEBAQEAAAAAAAAAAAQFAwIGAQAHCAkKCwEAAgIDAQEBAQEAAAAAAAAA&#xA;AQACAwQFBgcICQoLEAACAQMDAgQCBgcDBAIGAnMBAgMRBAAFIRIxQVEGE2EicYEUMpGhBxWxQiPB&#xA;UtHhMxZi8CRygvElQzRTkqKyY3PCNUQnk6OzNhdUZHTD0uIIJoMJChgZhJRFRqS0VtNVKBry4/PE&#xA;1OT0ZXWFlaW1xdXl9WZ2hpamtsbW5vY3R1dnd4eXp7fH1+f3OEhYaHiImKi4yNjo+Ck5SVlpeYmZ&#xA;qbnJ2en5KjpKWmp6ipqqusra6voRAAICAQIDBQUEBQYECAMDbQEAAhEDBCESMUEFURNhIgZxgZEy&#xA;obHwFMHR4SNCFVJicvEzJDRDghaSUyWiY7LCB3PSNeJEgxdUkwgJChgZJjZFGidkdFU38qOzwygp&#xA;0+PzhJSktMTU5PRldYWVpbXF1eX1RlZmdoaWprbG1ub2R1dnd4eXp7fH1+f3OEhYaHiImKi4yNjo&#xA;+DlJWWl5iZmpucnZ6fkqOkpaanqKmqq6ytrq+v/aAAwDAQACEQMRAD8A9U4q7FXYq7FXYq7FXYq7&#xA;FXYq7FXYq7FXYqxfzV55tNHLWtqoudQ/aWvwR/69Op/yRmu1faEcXpG8vucbNqBHYc3nWpeZtd1F&#xA;ibm8kKH/AHUh4J/wK0H35o8uryT5lwZ5ZS5lK6mte/jmO1pppnmjXdOYG2vJOA/3TIecZ/2LVp9G&#xA;ZGLV5Ici2QzSjyL0fyt53s9ZItp1FtqFKiOvwPTrwJ/Uc3uk18cux2k5+HUCex5smzYOQ7FXYq7F&#xA;XYq7FXYq7FXYq7FXYq7FXYq7FXYq7FXYq7FXYq7FXYq7FXYq7FXYq7FUj846/wDobSGljP8Apc59&#xA;K2HgxG7/AOxH40zD1up8KFj6jyac+Tgj5vHHeSWQu5LyOSWY7ksTuT7nOWJJLqmd+XPy29aFLnWG&#xA;aPmAy2iGjAf8WNvT5DNzpuy7F5Pk5uLS3vJkv+A/Knp8PqIp/N6kvL7+WZ/8n4a+n72/8vDuYx5j&#xA;/LdoInutHZpVQFntX3eg/kbavyO+a/Vdl0Lx7+Tj5dLW8WDRySRSLJGxSRCGRhsQRuCM1AJBsOGD&#xA;T2Xyjr36Z0dJ3p9aiPpXIH84H2v9kN86nRajxcd9ertcOTjjfVOsy252KuxV2KuxV2KuxV2KuxV2&#xA;KuxV2KuxV2KuxV2KuxV2KuxV2KuxV2KuxV2KuxV5f+aF40mtQW1fgt4Qaf5UjEn8Auc92tO8gHcH&#xA;XauXqpD/AJdaVHe6960y8o7NPVAPQyVAT7uv0ZDszCJ5LP8ADux0sLl7nrGdI7N2KuxV5H+YOlR2&#xA;Gvs8K8YbtBOAOgYkhx94r9Ocz2lhEMu3KW7q9TDhl70w/K27dNWurWvwTQ86f5UbAD8HOXdkzqZj&#xA;3hs0cvUQ9MzoHYOxV2KuxV2KuxV2KuxV2KuxV2KuxV2KuxV2KuxV2KuxV2KuxV2KuxV2KuxV2KvJ&#xA;vzHKHzIWR1cNCn2SDQglaGnfbOa7U/vfg6zVfWjfytukTVLu2YgNPEGSvcxt0H0Nl3ZE6mR3hnoz&#xA;6iHpmb92DsVdirzD80LqOTWreBTVoIRz9i7E0+6hznu1pg5AO4Ou1Z9VKf5ZQM/mGSSnwxW7kn3L&#xA;Ko/Xg7KjeW+4I0g9b1POidk7FXYq7FXYq7FXYq7FXYq7FXYq7FXYq7FXYq7FXYq7FXYq7FXYq7FU&#xA;PfahZWEBuLyZIIR+05pU+A8T7DIZMkYC5GgxlIRFlhOsfmgilotJt+fb6xPUD5qg3+8/Rmoz9rdI&#xA;D4lxJ6v+aw7UvMmuakT9bvJHQ/7qU8E/4FaDNXl1WTJ9RcSeWUuZS3KGtEadf3On3sN5bNxmhbkp&#xA;7HxB9iNjk8WQwkJDmGUZGJsPYfL3mnTNagUwuI7oD97asaOD7fzD3GdRptXDKNufc7XFmEx5pxmU&#xA;2pL5i816bosDeo4lvCP3VqpqxPYt/KvzzE1OshiG/wBXc05cwgPN4/fXtxfXct3cNzmmYu59z2Hs&#xA;O2cvkyGcjI8y6uUiTZZD5J80afock63UDsLkqDOhBKha7cTTbfffM7QauOEniHPq36fMIc3p+nan&#xA;p+owCeynWeLuVO4PgwO4PzzocWWMxcTbsYzEhYRWWMlG9vbSyt3ubuVYYE+07dP7T7ZCeSMBcjQR&#xA;KQAsvPdc/M27ldotIjEEXT6xIA0h91U1Vfprmk1HasjtDYd7g5NWf4WJ3GuazcuXnvp3b3kag+Qr&#xA;QZrZajJLnIuKckjzKJ0vzTrumzCSC6d0B+KGVi8bD3Un9W+WYtXkxmwWUM0o8i9Z8v65b61pqXkI&#xA;4NXhNEdyjjqPxqM6TTagZYcQdniyCYtMsyGx2KuxV2KuxV2KuxV2KuxV2KuxV2KuxV2KsX80+erP&#xA;SeVrahbnUNwVr8EZ/wAsjv8A5I/DNdq+0I49o7y+5xs2oEdhzeY6lquoancG4vZmmkPSvRR4Ko2A&#xA;+Wc/lzSyG5G3XzmZGyhooZZpFihRpJGNFRAWYn2AyAiSaDEC2V6V+W2t3YV7tlsYj2f45Kf6g/ic&#xA;2OHsvJLeXpcmGlkeezKLH8tfL0ABuDLdt35twX6AnE/jmxx9l4hzsuTHSRHPdjPm7yLcafI95psb&#xA;TWB+JoxVni8fcr7/AH5r9b2eYHihvH7nHzacx3HJiKsysGUkMNwRsRmscVGfpzWvT9P9IXPp9OHr&#xA;Scfurlv5jJVcR+ZZeJLvKCJJJJNSdyTlTFPbXyR5kurH65Fa0T9iJyEkYfzBWpt88zIaDLKPEA3D&#xA;TzIukmuLa4tpmhuImhlX7Ubgqw+g5iSiYmiKLSQRzVLDUb3T7hbizmaGZf2lPUeBHQj2OSx5ZQNx&#xA;NFMZGJsPRNC/MmxmtXXVR6FzEpYMgJSWg6KP2WPh0zeaftSJHr2I+1z8eqBHq5sJ8x+Zb7XLv1Jz&#xA;wt0J9C3B+FB/FvE5qdTqpZpWeXQOHlymZ3S61tbm6nS3to2lmkNEjQVJyiEDI0BZYAEmgy61/LW6&#xA;W0e71W8SzjjQyOiL6jKoFTyNVG3tXNnDssiPFM8P2uSNKauRphrceR41K12J2NM1TivQPyo9ampb&#xA;H0P3VD25/F0+jN32Pfq7tnN0fV6Bm6c52KuxV2KuxV2KuxV2KuxV2KuxV2KuxVg3nfzu1qz6Xpj/&#xA;AOkD4bm5H7Ff2EP83ie3z6afX6/h9EOfUuHqNRXpi83JJJJNSdyTmicBkXlnyVqOtETv/o1hXedh&#xA;u9OojHf59MztLoZZd+Ufxyb8WAz36PTtG8v6VpEPp2UIViKPM3xSN/rN/AbZ0GDTQxCoh2EMUY8k&#xA;xy9sQmr6lDpmmz30wJjgXlxHUkmir9LEDKs2UY4GR6MZz4RbynVPPfmK/ZgLg2sJO0cHwUH+v9v8&#xA;c5zL2hln1oeTrJ6icutJAzM7FmJZjuWJqScwibaWsUOBINRsRilPdH86a9pjqFuDcW46wTkutPYn&#xA;4l+g5mYNdkx9bHcW6GeUXpv1bR/MukQXFxbiSKdAyE7OhPUBhuCDm/4MeeAJGxdhUckbLz/zP5Dv&#xA;dKD3VoTdWA3Y0/eRj/LA6j/KH4ZpdX2fLHvHeLg5tOY7jcMVzXOMiNP0+61C8itLVOc0poo7DxJ8&#xA;AO+Tx45TkIx5llGJkaD2Dy15YsdDtQkYEl24/f3JG7HwHgvtnUaXSRwx2+rvdriwiA80k/MzWvq2&#xA;nx6ZE1Jbv4pqdREp/wCNm/UcxO1c/DHgHOX3NOryUK73mWc+656P5N8zeVtN0mGye4MNwxLztIjA&#xA;GRuvxKGFAAAK5vdDq8OOAjdHq7DBlhGNWzS1vbO7j9W1njnj/mjYMPwzawyRkLibcsSB5K2TS7FX&#xA;Yq7FXYq7FXYq7FXYq7FXYqxXz15q/RNoLO0emoXC7MOscZ25/M9FzXdoavw48MfqP2ONqM3CKHN5&#xA;QSSancnqc5t1rM/JXkk35TUdSQixG8MJ2Mp8T/kfrza6DQcfrn9P3uVp9Pxbnk9NRFRQiAKigBVA&#xA;oAB0AGb8CnYt4VdiqB1zS11XSbmwZuHrrRX60ZSGU/8ABAZTqMXiQMe9hkhxRIeWnyD5pFwYRaAg&#xA;H+95pwp41Jr+Fc53+Ts11Trvy075J3ZflXcMA17fLGe6QoX/AOGYr+rMzH2Qf4pfJtjoz1KZp+Vu&#xA;hAfHc3RbxDRgf8QOXjsnH3y+z9TZ+Tj3lBX35VR8CbC+IcdEnUEH/ZJ0/wCByrJ2QP4ZfNjLR9xY&#xA;+n5f+aGufRNqEWtDMXTgB47En8K5hDs7NdU0flp3yep6NpqaZpdtYo3MQIFL9Kt1Y09yc6LBi8OA&#xA;j3OxhDhiAjMtZvPvOfkSnPUtIj2+1cWaj72jA/FfuzSa7s/+OHxH6nBz6frFO/I/lcaRY/WLlf8A&#xA;chcgGSvWNOoj+fdvf5Zl6DSeFGz9RbtPh4RZ5skkkSKNpJGCxoCzsegAFSTmeSALLkEvEfMOrPq2&#xA;r3F6a8HakKntGuyj7s5LU5vEmZOnyz4pEpdlDW7FVW1vLu0mE1rM8Mo6PGxU/hkoTlE2DRZCRHJn&#xA;Pl78y5Ay2+tKGU7C7jFCP9dB1+a/dm303ah5ZPm5mLV9JPQIZoZ4lmhdZInHJHU1BB7gjN3GQIsc&#xA;nNBtfhS7FXYq7FXYq7FXYq7FUNqV/Bp9jPezmkUCF28T4Ae5OwyvLkEImR5BjOQiLLxDU9RudRv5&#xA;r25asszcj4AdlHsBsM5LLlM5GR5l1E5GRsp15K8sHWb/ANSdT+j7YgzHpzbtGPn39sytBpPFlZ+k&#xA;fim3T4uM78nrqIqKEQBUUAKoFAAOgAzpgKdo3hV2KuxV2KuxV2KuxV2KuxV2KuxV2KuxVxAIIIqD&#xA;sQcVU/q9v/vpP+BGR4R3IoNyQQS/3kav2+IA/rwmIPNSAUrvvKPly9B9WxjVj+3EPSb70pX6cxsm&#xA;ixT5xH3NcsED0YZrv5aXVurT6TIbmMbm3eglA/ySKK34ZqtR2VKO8Dfl1cTJpCN4sJdHR2R1KupI&#xA;ZWFCCOoIOakinEZF5Q83XGi3AgnJk02Vv3kfUoT+2n8R3zO0WtOI0fob8GcwNHk9cilimiSWJg8U&#xA;gDI6moIO4IzpokEWHZg2uwpdirsVdirsVdirsVef/mhrBH1fSYm2I9e4A+5B+s/dmk7Wz8oD3lwd&#xA;XPlFgMEMs80cMSlpZWCIo6lmNAM00Ykmg4QFvbtB0iHSdKgsowKoKyuP2pD9pvv/AAzrdPhGOAiH&#xA;cY4cMaTDL2bsVdirsVdirsVdirsVdirsVdirsVdirsVdirsVdirsVSTzJ5s0/QkQTK01zKKxwJQG&#xA;n8zE9BmJqtZHDz3Pc05cwgwy/utI83swt7f6jriryhBYFJwoqULUX4qdCRmqyThqeQ4cn3uJIxy8&#xA;tpMNdHjdo3Uq6EqykUII2IIzVEVsXFZ7+W3mNg50W5eqtV7MnserJ9PUfTm57L1X+TPwc3S5f4S9&#xA;DzeOc7FXYqlepeaNA02X0by8SOUdYwGdhXxCBiPpzHy6vFjNSO7XLNGPMt6d5l0HUX9OzvY5JD0j&#xA;NUc/JXCk44tVjntGSxyxlyKZ5kNjsVeH+Y9ROo65eXdao8hEZ/yE+FP+FGcjqsvHkMvN0+WXFIlP&#xA;fy10oXWtPeOKx2Kch/xkeqr+HI5mdl4eLJxfzW7SwuV9z1POidk7FXYq7FXYq7FXYq7FXYq7FXYq&#xA;7FXYq7FXYq7FXYq7FXYq8d8+TSS+ab0OaiPgiDwUIp/Wc5ftCROaTqtQfWUo0+eS3v7aeM0kilRl&#xA;PuGBzFxyMZAjvaomiCzL8y/L6wzJrFutEmPp3QA2D0+F/wDZDY/25te1NNR8Qdebl6vFXqDCba5m&#xA;triK4hbjLCweNvBlNRmohIxII5hwwaNvSIvzT0ghPVtJ1YgcyvAgHvSrDN8O14dQXYDWR7mT6Rre&#xA;m6tb+vYzCRV2dDs6k9mU7jNhhzwyC4lyIZBIWFLzNqUmm6FeXke0saUjPgzkIp+gtkdVlOPGZBGW&#xA;XDEl4k7u7s7ks7ElmO5JO5JzkibdQ0CQQQaEbgjFXonkPznNcSrpWpSc5G2tLhupI/YY9z4HN52f&#xA;rjI8E/gXO0+e/SWYa3dG00e9uQaNFBIyf6wU8fxzZ6ifDjke4OVkNRJeF5yDpnqn5Z2Qh8vtcEfF&#xA;dSswP+SnwD8Qc6LsrHWK+8uy0kajfey3Nm5TsVdirsVdirsVdirsVdirsVdirsVdirsVdirsVdir&#xA;sVdirz78wPKV/cXv6V0+Jp/UVVuIUHJwyigYKNyCABtmk7R0cpS44i+9wdThJPEEq8oeTtTutThu&#xA;by3e3srdhIxlUoXKmqqqnc1PU5j6LRTlMGQqIa8GAk2Rs9K1jTo9S0y5snpSdCqk9m6q30NQ5vs+&#xA;IZIGJ6ufOPECHhkkbxyNG44uhKsp7EGhGceRRp05C3FCZeXtYn0nVYLuNiEDBZ17NGT8QP8AD3y/&#xA;TZzjmJBsxTMZW9c8zae+oaDe2kYrJJHWNfFkIdR9JXOm1WPjxyiHaZY8USHiJFNj1zknUOxQujke&#xA;ORZI2KyIQyMOoINQRiDRsJBeqeYNU+u/l/Lfr9qeGLmBtRmkVHH0GudHqc3HpTLvA+92WSd4reU5&#xA;zjrHtHk6IReWNOUClYuf/Bkt/HOr0QrDH3O3wCoBOcym12KuxV2KuxV2KuxV2KuxV2KuxV2KuxV2&#xA;KuxV2KuxV2KuxV2KuxV2KuxVhX5pqP0TZtQchcUB70KNX9Wantf6B73E1n0h5nmgdc9o1Lzh5e06&#xA;4Nvc3Y9ddnjRWcqfAlQQD7Z1eXW4oGid3bzzwiaJef8Amqy0O7nk1PRbyJ1kPKe0Y+m4Y7lkWTiT&#xA;XwGaTWY8cjx4yPMODmjEm4li+a9xnYq6uKXYoe1eUZBJ5Z05h2hC/wDA/D/DOr0RvDH3O3wH0BN8&#xA;ym12KuxV2KuxV2KuxV2KuxV2KuxV2KuxV2KuxV2KuxV2KuxV2KuxV2KuxVhf5p/8ce0/5iP+NGzU&#xA;9r/3Y97iaz6R73mWaB1yJ1OyvbO+mt71WW4VjzLV+Lf7QPcHxyzLCUZES5s5xINFDZWwdiqIsLC7&#xA;v7uO1tYzJNIaKo/WfADucnjxynLhjzZRiZGgzq+/LOyt9LnnS5mkuoYWkC/DxZ1WtAKVoSPHNxk7&#xA;KjGBNmwHNlpAI3e7z3NI4D1n8ub6K48tx24YGW0d0kXuAzF1Py+Kn0Z0nZmQSxV1i7PSyuFdzKM2&#xA;LkuxV2KuxV2KuxV2KuxV2KuxV2KuxV2KuxV2KuxV2KuxV2KuxV2KuxV2KsL/ADT/AOOPaf8AMR/x&#xA;o2antf8Aux73E1n0j3vMs0DrnvF9pmn36cLy2juFHT1FBI+R6j6M7HJijP6gC7qUBLmEiuPy68sS&#xA;sSkUkFd6RyGn/D8sw5dmYT0I+LSdLAqMX5ZeXEarNcSiteLuoHy+FVyI7KxDvYjSQ80/0zRtL0yM&#xA;x2NskAP2mG7H5sasfvzNxYIYxURTfDHGPII0gEUO4PUZazeNebvLsui6myKCbOYl7V/8mv2D7rnK&#xA;63THFP8Aonk6nNi4D5IXy/rl1o2opdwElPszxdnSu6/0OV6bUHFPiDHHkMDYe12tzDdW0VzCeUUy&#xA;LJG3irCozrISEgCORduDYtUySXYq7FXYq7FXYq7FXYq7FXYq7FXYq7FXYq7FXYq7FXYq7FVssscU&#xA;TyysEjjBZ3Y0AUCpJOAkAWUE0wi4/NSySd0hsXliViEkLheQHfjxNM1Mu14g7RsOIdYL5Kf/ACta&#xA;3/6tz/8AI0f805H+WB/N+1H5wdyR+bPOaa9aQ26WpgEUnqFi/KvwkU2A8cw9ZrvGiBVU05s/GKpj&#xA;CI8jqiDk7kKqjuTsBmvAvZx30Bnau7dirsVdirsVY1+YkUD+V7hpFDPG8Zhb+Vi4BP8AwJIzA7TA&#xA;OE35OPqgOB5HnMure2+Vk4eXNNFKVt42p/rLX+OdbpBWKPudxh+ge5NMyGx2KuxV2KuxV2KuxV2K&#xA;uxV2KuxV2KuxV2KuxV2KuxV2KqN5e2llbtcXUqwwp9p3NB8vc5CeSMBcjQRKQAsvLvOHnaXVybOz&#xA;5Racp+KuzSkd28F8B9/tz2t15y+mO0fvdbn1HFsOTFlVnYKoLMxoqjcknNcBbjq/6O1D/lll/wCA&#xA;b+mT8KXcU8J7m00vU5GCJaTMx6Ksbkn6AMIwzPQ/JPAe5m/kvyLdw3cepaonpekeVvbHdiw6M/hT&#xA;sOubbQ9nyEhOfTkHLwacg3J6Dm7c52KuxV2KuxVi/wCY78fLEgrTnLGtPHev8M13ah/c/EONqvoe&#xA;TZzbrHuehJw0TT0G4W2hFflGM6/Tiscf6o+53OP6R7kdlzN2KuxV2KuxV2KuxV2KuxV2KuxV2Kux&#xA;VZNGZIXjDmMupUOvVSRSo9xgkLFIIeWy+d/NulXs1nczJO9u5RhLGN6HrVeBoeuc6dfnxyMSbryd&#xA;cdROJoo+D81rtR/pGnxyHuY5GT9YfLo9sS6xZjWHqFU/mwabaXv2/f8A/XvJfyx/R+39ifznkgbz&#xA;80NalUrbQQ29f2iDIw+VSF/DKZ9rZDyADCWrkeTF9Q1XUdRl9W+uHncfZ5HYf6qjYfRmvyZpzNyN&#xA;uPKZlzKjb289zMkFvG0s0hokaCpJ+QyEYmRobliATsHqHk7yRHpQW+vgJNRI+BOqxA+Hi3ifuzod&#xA;FoBj9Uvq+52ODT8O55stzZuU7FXYq7FXYq7FXYq7FWI/me/Hy9EKfaukH/COf4ZrO1j+6H9b9bi6&#xA;v6Pi8sznXWve7FCllboeqxoDT2UDOyxioj3O7jyVsml5tr/nfXdN8xXsFtMr2sTgJDIgIHwiu44t&#xA;1980Oo1+THlkAdnX5NRKMyByRVh+aiEhb+xKj9qSBq/8I1P+JZZj7X/nR+TOOs7wybT/ADh5cvgP&#xA;SvURz/uub901fD4qA/Rmwx63FPlL57ORHPA9U4VlYBlIKnoRuMyrbW8VdirsVdirsVQV7rmj2Nfr&#xA;d5DER+wzjl/wI+L8MpyajHD6iAwlkiOZY7qP5m6JACLOOS8fsQPTT72+L/hcwcvauMfTcvsaJauI&#xA;5boDy/551fV/MlpaOscFpJ6nOJBUnjEzCrNXuO1Mp03aE8uUR2Ed/uYYtRKUwOjPs3TmvOvzP0Xh&#xA;NDq8S/DLSG5p/MB8DH5jb6M0Xa2CiJj3FwNXj/iYHmncJWjsryVA8cEjoejKjEHt1AyQxyPIFkIl&#xA;GW/lrzBcGkWnXBr3aNkX72AGWx0uWXKJZDFI9GQ6X+WOrTsG1CVLSPuin1JPlt8P45nYuypn6jwt&#xA;8NJI89md6L5b0nRo+NnF+8Io87/FI3zb+AzcYNLDEPSPi5uPFGHJM8yGx2KuxV2KuxV2KuxV2Kux&#xA;VhP5qOBpNmndp6+2yEfxzU9rn0D3uJrPpDzRQWIUCpOwGaB176AVQqhRsAKAewztQ7tvFXivm5lb&#xA;zLqJU1HrMPpGxzk9af30ve6jN9ZSjMZqdiqItNR1CzNbW5lgP/Fbsv6jk4ZZR+kkMhIjkU4t/Pnm&#xA;mCg+ueoo/ZkRG/GnL8cyo9oZh1bRqJjqjY/zO8xKPijtn2/aR/8AjVxlo7Vy+X4+LMaufk6T8zvM&#xA;TD4Y7ZNv2Uf/AI2c4ntXL5fj4qdXPyQc/n/zTNUC7ESntHGg/Egn8cql2jmPVidTM9Urutb1i7r9&#xA;ZvZ5QeqtI3H/AIGtMx56jJLnItRySPMoLKmDsVT7yLIsfmuwZuhZ1+lomUficzOzzWaP46N+nPrD&#xA;2POpdqg9Z0yLU9MuLGXZZkoreDDdW+hgDlWfEMkDE9WE4cQIeG3EEtvPJBMpSWJikinsymhGchKJ&#xA;iaPMOnIo09A/K7V6pcaVI26/v7cHwOzgfTQ/fm67JzbGB94c7ST5xZ9m6c12KuxV2KuxV2KuxV2K&#xA;uxV2KuxV2KsE/NZj9V05exeQn5gL/XNN2wdo/FwtZyDz+yQPe26Ho0iA/SwzS4xch73Cjze952bu&#xA;lO4nit7eW4lPGKFGd28FUVORlIRBJ5BBNC3g93cPc3U1y/255Gkb5uSx/XnHTlxSJPV00jZt6B+W&#xA;WlQyaZe3FxEksc8ixhZFDAiMEnY+75uuysIMJEi7P3ObpIbElOr7yB5Zu6kW5tnP7UDFf+FPJPwz&#xA;LydnYZdK9zdLTQPRILv8qjubO/8A9VJk/wCNlP8AxrmFPsj+bL5tEtH3FKbj8tfMsRPpiGcdiklP&#xA;+JhMxpdl5RyotR0s0E3kbzWpobBq+zxn9TZUez83837mP5efc2nkXzWxoLBvpeIfrYYjs/N/N+5f&#xA;y8+5GQflr5lkPxiGH/Xkr/xAPlsey8p7gyGlmmlr+VMpobrUFXxWKMn/AIZiP1ZkQ7IP8Um0aPvK&#xA;dWn5b+W4CDKst0f+LHoPujCZlw7LxDnZbY6WA80k/MTy5Y2dhaXdhbJBHG5inEYpXmKqWPtxI38c&#xA;xO09LGERKIpq1WIAAgMIsrqS0vILqP8AvIJFkX5qa5qITMZCQ6OHE0be7Wl1Dd2sV1CeUUyB0Psw&#xA;rnYwmJAEci7mJsWq5JLy/wDMzSo7bVor6OgF6p5r39SOgJp7gjOe7VwiMxIfxOu1cKlfex3QNQm0&#xA;/WLS7iqWSQBlH7St8LL9IOYOnyGGQSDRjlwyBe5Z17uHYq7FXYq7FXYq7FXYq7FXYq7FXYqw/wDM&#xA;6yebRIrlBX6rMC/sjjjX/guOavtXHeMHuLi6uNxvueXKSpDA0I3BznnXMwX80fMAABgtSQOpSSp+&#xA;6TNn/K2Xuj9v63K/Ny8kHq/n7W9UsJLKZIIopaeoYlcMQDWlWdtjlebtHJkjwmgD3MJ6mUhTHY43&#xA;kkWONS0jkKijqSTQAZgAWaDQA9v8v6Wul6Pa2IoWiT96R3dvic/ec67TYfDxiLuMcOGICYZezdir&#xA;sVdirsVdirsVdiqE1bTYdS024sZvsToV5fyt1VvoYA5VmxDJAxPVjOPEKeH3lncWd1La3C8JoWKO&#xA;vuP4eGcjOBjIxPMOnlEg0U70TzzrOkWQsoFhlhViyesrMVruQOLLtXfMvB2hkxR4RRHm3Y9RKIoI&#xA;/wD5Wj5g/wCWe0/4CT/qpl/8rZe6P2/rZ/nJeTHNX1nUNWuzdXsnOSnFVGyqvgo7ZgZs8skrk485&#xA;mRsph5L0eTUtetxx/cWzCedu1ENQv+yO2X6HAcmQdw3LZghxSeyZ1LtXYq7FXYq7FXYq7FXYq7FX&#xA;Yq7FXYqp3VtBdW8ltOgeGVSkiHuDtkZwEgQeRQQCKLzDWPy31m2nY6eBeWxNU+JVkA8GDEA/RnP5&#xA;+y8kT6fUHXT0sgdt0p/wf5m/6t0v3D+uY35LN/NLX4E+5tPJvmd2CjT5AT48VH3kgYjQ5j/CV8Cf&#xA;czXyf5EOmzLqGpFXu1H7mFd1jJ/aJ7t+AzbaLs/wzxT+r7nLwafh3PNmebVy3Yq7FXYq7FXYq7FX&#xA;Yq7FXYqxjzf5Mi1pRc2xWHUUFOTfZkUfstTuOxzX63QjLuNpOPnwce45sAl8l+aI3KHT5GI7qVYH&#xA;6Qc0p0OYfwuCcE+5Z/g/zN/1bpfuH9cH5LN/NK+BPuTLTPy48wXUg+tKtlD3ZyHansqk/iRl+Lsz&#xA;LI7+kM4aWR57PR9D0Kw0azFtaL13llb7bt4sc3un08cUai7DHjEBQTDL2bsVdirsVdirsVdir//Z</xmpGImg:image>
               </rdf:li>
            </rdf:Alt>
         </xmp:Thumbnails>
         <pdf:Producer>Adobe PDF library 11.00</pdf:Producer>
         <dc:format>image/svg+xml</dc:format>
         <xmpTPg:MaxPageSize rdf:parseType="Resource">
            <stDim:w>44.223701</stDim:w>
            <stDim:h>31.496094</stDim:h>
            <stDim:unit>Pixels</stDim:unit>
         </xmpTPg:MaxPageSize>
         <xmpTPg:NPages>1</xmpTPg:NPages>
         <xmpTPg:HasVisibleTransparency>False</xmpTPg:HasVisibleTransparency>
         <xmpTPg:HasVisibleOverprint>False</xmpTPg:HasVisibleOverprint>
         <xmpTPg:PlateNames>
            <rdf:Seq>
               <rdf:li>Cyan</rdf:li>
               <rdf:li>Yellow</rdf:li>
            </rdf:Seq>
         </xmpTPg:PlateNames>
         <xmpTPg:SwatchGroups>
            <rdf:Seq>
               <rdf:li rdf:parseType="Resource">
                  <xmpG:groupName>Default Swatch Group</xmpG:groupName>
                  <xmpG:groupType>0</xmpG:groupType>
               </rdf:li>
            </rdf:Seq>
         </xmpTPg:SwatchGroups>
      </rdf:Description>
   </rdf:RDF>
</x:xmpmeta>
                                                                                                    
                                                                                                    
                                                                                                    
                                                                                                    
                                                                                                    
                                                                                                    
                                                                                                    
                                                                                                    
                                                                                                    
                                                                                                    
                                                                                                    
                                                                                                    
                                                                                                    
                                                                                                    
                                                                                                    
                                                                                                    
                                                                                                    
                                                                                                    
                                                                                                    
                                                                                                    
                           
<?xpacket end="w"?>
	</metadata>
<g>
	<g>
		<path fill="#7AC143" d="M42.2,15h-0.8c-0.8-1.9-2.7-5.2-7.2-5.5l0.8-1.7l0-0.1c0-0.8-0.6-1.5-1.4-1.7c0,0-0.2,0-0.4,0
			c-0.8,0-2.5,0.3-4.3,2.6c-1.1-1-2.4-1.7-3.9-2.3c0.4-0.6,0.5-1.3,0.5-2c0-2.2-1.8-4-4-4c-2.2,0-4,1.8-4,4c0,0.4,0.1,0.9,0.2,1.3
			C11.4,6.8,7,12.1,7,18.2c0,0.1,0,0.1,0,0.2c-0.2,0-0.3,0-0.5,0c-0.4,0-0.7,0-1,0c-0.1-1.3-1-2.7-2.4-3.1c-0.7-0.2-1.2,0-1.5,0.5
			c-0.3,0.4-0.3,1.1,0,1.7C2.1,18.4,2.9,19,4,19.3c0,0.2-0.2,0.4-0.8,0.4c-0.4,0-0.9-0.1-1.3-0.2c-0.3-0.1-0.6-0.1-0.8-0.1
			c-0.4,0-0.7,0.2-0.7,0.4c0,0.2,0.1,0.5,0.6,0.7c0.7,0.2,1.4,0.4,2.1,0.4c0.9,0,2-0.2,2.4-1.4c0.3,0,0.7,0,1.1,0c0.2,0,0.3,0,0.5,0
			l0,0.5c0.1,0.9,0.3,1.1,0.6,1.5c0.2,0.2,0.4,0.5,0.6,0.9L8,28.5c0,1.7,0.6,2.6,1.9,2.6h1.9c1.8,0,2.3-3.4,2.4-4l0.2,0
			c1.4,0.4,3.9,1.2,6.3,1.2c2.1,0,5.1-0.7,6.5-1c0.2,1.2,1.2,3.8,2.5,3.8h1.8c1.4,0,2.6-1.2,2.6-2.6v-0.1l-1.2-2.7
			c0.3,0,0.6,0,0.9,0c2.5,0,4.3-0.9,6-2.8h2.4c0.9,0,1.7-0.8,1.7-1.7v-4.6C43.8,15.8,43.1,15,42.2,15L42.2,15z M32.9,28.7
			c-0.1,0.7-0.7,1.3-1.4,1.3h-1.8c-0.7,0-1.4-2.2-1.4-3.1v-1.2L27.5,26c-1.1,0.4-4.3,1.2-6.8,1.2c-2.3,0-4.9-0.7-6.2-1.2l-0.2-0.1
			l-1.2-0.3l0,1v0.3c0,0.7-0.5,3.1-1.2,3.1H10c-0.3,0-0.8,0-0.8-1.4l0.3-6.4v0L9.5,22c-0.2-0.5-0.5-0.7-0.6-0.9
			c-0.3-0.3-0.5-0.5-0.6-1.2l-0.1-1.2v0c0-0.1,0-0.3,0-0.4c0-5.6,4.3-10.5,10.1-11.4c0.8,1,1.9,1.6,3.2,1.6c1,0,2-0.4,2.7-1.1
			c1.6,0.6,3.1,1.4,4.3,2.6l0.5,0.5l0.4-0.5c1.8-2.4,3.2-2.7,3.8-2.7c0.1,0,0.2,0,0.2,0c0.2,0,0.4,0.2,0.4,0.4l-1.5,3.1l1.2,0
			c4.7,0,6.4,3.6,7,5.1l0.1,0.4h1.7c0.3,0,0.5,0.2,0.5,0.5v4.6c0,0.3-0.2,0.5-0.5,0.5h-3L39,22.1c-1.5,1.8-3.1,2.5-5.5,2.5
			c-0.5,0-1-0.1-1.5-0.1l-1.1-0.2L32.9,28.7z M21.4,1.3c1.7,0,3.1,1.4,3.1,3.1c0,1.7-1.4,3.1-3.1,3.1c-1.7,0-3.1-1.4-3.1-3.1
			C18.3,2.7,19.7,1.3,21.4,1.3L21.4,1.3z M3.9,17.9c-0.1-0.1-0.2-0.1-0.3-0.2c-0.2-0.2-0.4-0.5-0.6-0.9c0-0.1-0.1-0.2-0.1-0.3
			c0,0,0,0,0,0C3.3,16.8,3.7,17.3,3.9,17.9L3.9,17.9z M3.9,17.9"/>
		<path fill="#7AC143" d="M31.5,31.5h-1.8c-1.5,0-2.5-2.5-2.8-3.7c-1.4,0.3-4.1,0.9-6.2,0.9c-2.3,0-4.7-0.7-6.2-1.1
			c-0.2,1.3-0.9,3.9-2.7,3.9H10c-1,0-2.3-0.5-2.3-3l0.3-6c-0.2-0.4-0.4-0.6-0.5-0.8c-0.3-0.4-0.6-0.7-0.7-1.7l0-0.2H6.6
			c-0.3,0-0.6,0-0.9,0c-0.4,0.9-1.3,1.3-2.6,1.3c-0.7,0-1.5-0.1-2.2-0.4C0.1,20.6,0,20.1,0,19.7C0.1,19.4,0.4,19,1.1,19
			c0.2,0,0.5,0.1,0.8,0.1c0.3,0.1,0.7,0.1,1,0.2c-0.8-0.4-1.3-0.9-1.6-1.7c-0.3-0.7-0.3-1.5,0-2.1c0.4-0.6,1.1-0.8,1.9-0.6
			c1.4,0.3,2.4,1.7,2.6,3.1c0.2,0,0.4,0,0.7,0c0,0,0.1,0,0.1,0c0.1-6.1,4.5-11.3,10.6-12.6c-0.1-0.3-0.1-0.7-0.1-1C17,2,19,0,21.4,0
			c2.4,0,4.4,2,4.4,4.4c0,0.6-0.1,1.2-0.4,1.8c1.2,0.5,2.3,1.2,3.3,2c1.9-2.2,3.5-2.5,4.4-2.5c0.3,0,0.4,0,0.5,0
			c1,0.2,1.7,1.1,1.7,2l0,0.3l-0.6,1.2c4.2,0.5,6.1,3.5,6.9,5.4h0.6c1.1,0,2.1,0.9,2.1,2.1v4.6c0,1.1-0.9,2.1-2.1,2.1h-2.2
			c-1.8,2-3.8,2.8-6.5,2.8l1,2.4C34.5,30.2,33.2,31.5,31.5,31.5z M27.5,26.8l0.1,0.4c0.2,1.2,1.2,3.5,2.2,3.5h1.8
			c1.2,0,2.2-1,2.2-2.2v0l-1.5-3.2l0.6,0c2.8,0.2,4.8-0.6,6.6-2.6l0.1-0.1h2.6c0.7,0,1.3-0.6,1.3-1.3v-4.6c0-0.7-0.6-1.3-1.3-1.3
			h-1.1L41,15.2c-0.7-1.8-2.6-5-6.9-5.2l-0.5,0l1-2.2c0-0.6-0.5-1.1-1.1-1.3c0,0-0.2,0-0.3,0c-0.8,0-2.3,0.3-4,2.5l-0.2,0.3
			l-0.3-0.3c-1.1-0.9-2.4-1.7-3.8-2.2l-0.4-0.2l0.2-0.4C24.9,5.6,25,5,25,4.4c0-2-1.6-3.6-3.6-3.6c-2,0-3.6,1.6-3.6,3.6
			c0,0.4,0.1,0.8,0.2,1.2L18.1,6l-0.4,0.1c-6,1.1-10.4,6.2-10.4,12.1l0,0.6l-0.4,0c-0.5,0-1.1,0-1.5,0l-0.3,0l0-0.3
			c-0.1-1.1-0.9-2.4-2.1-2.7c-0.5-0.1-0.9,0-1.1,0.3c-0.2,0.3-0.2,0.8,0,1.3c0.4,0.8,1.1,1.4,2.2,1.6L4.5,19l-0.1,0.4
			c-0.1,0.3-0.3,0.7-1.1,0.7c-0.5,0-1-0.1-1.4-0.2c-0.9-0.2-1.1-0.1-1.1,0c0,0,0.1,0.2,0.3,0.2c0.6,0.2,1.4,0.3,2,0.3
			c1.1,0,1.8-0.4,2-1.1l0.1-0.3l0.3,0c0.3,0,0.7,0,1.1,0h0.8L7.5,20c0.1,0.8,0.3,1,0.6,1.3c0.2,0.2,0.4,0.5,0.6,1l0,0.1l-0.3,6.2
			c0,2,0.9,2.2,1.5,2.2h1.9c1.5,0,2-3.3,2-3.7l0.1-0.4l0.6,0.1c1.4,0.4,3.8,1.1,6.2,1.1c2.1,0,5.2-0.7,6.4-1L27.5,26.8z M31.5,30.3
			h-1.8c-1.1,0-1.8-2.7-1.8-3.4v-0.6l-0.3,0.1c-1.1,0.4-4.4,1.2-6.9,1.2c-2.4,0-5-0.8-6.3-1.2l-0.2-0.1l-0.7-0.2l0,0.8
			c0,0.4-0.3,3.4-1.6,3.4H10c-0.8,0-1.1-0.5-1.1-1.8l0.3-6.3l0-0.1c-0.2-0.4-0.4-0.6-0.6-0.8C8.2,21,8,20.7,7.9,19.9l-0.1-1.3
			c0-0.2,0-0.3,0-0.5c0-5.8,4.5-10.9,10.4-11.8l0.2,0l0.1,0.2C19.2,7.5,20.3,8,21.4,8c0.9,0,1.8-0.3,2.5-1L24,6.9L24.2,7
			c1.7,0.6,3.2,1.5,4.5,2.7l0.2,0.2L29,9.6c1.9-2.6,3.5-2.8,4.1-2.8c0.2,0,0.3,0,0.3,0.1c0.3,0,0.6,0.3,0.6,0.7l0,0.1l-1.3,2.7
			l0.5,0c4.9,0,6.8,3.8,7.3,5.4l0,0.1h1.4c0.5,0,0.9,0.4,0.9,0.9v4.6c0,0.5-0.4,0.9-0.9,0.9h-2.8l-0.1,0.1c-1.6,1.9-3.2,2.7-5.8,2.7
			c-0.5,0-1,0-1.6-0.1l-0.4-0.1l1.8,3.8l0,0.1C33.2,29.6,32.5,30.3,31.5,30.3z M28.7,25.2v1.7c0,0.9,0.7,2.6,1,2.7h1.8
			c0.5,0,0.9-0.4,1-0.9l-2.3-5l1.8,0.3c0.5,0.1,1,0.1,1.4,0.1c2.3,0,3.8-0.7,5.2-2.4l0.3-0.3h3.1c0.1,0,0.1-0.1,0.1-0.1v-4.6
			c0-0.1-0.1-0.2-0.1-0.2h-1.9L40,15.9c-0.5-1.5-2.2-4.9-6.6-4.9l-1.8,0l1.7-3.5c0,0-0.1-0.1-0.1-0.1c0,0,0,0-0.1,0
			c-0.4,0-1.8,0.2-3.5,2.5L29,10.9l-0.8-0.8c-1.1-1.1-2.5-1.9-4-2.4c-0.8,0.7-1.8,1-2.8,1c-1.3,0-2.5-0.6-3.3-1.6
			c-5.5,0.9-9.6,5.6-9.6,11c0,0.1,0,0.2,0,0.4l0.1,1.3c0.1,0.6,0.2,0.7,0.5,1c0.2,0.2,0.4,0.5,0.7,1l0.1,0.3l-0.3,6.4
			c0,1,0.2,1,0.4,1h1.9c0.3,0,0.9-1.7,0.9-2.7l0-1.7l1.9,0.5c1,0.3,3.7,1.2,6.1,1.2c2.5,0,5.6-0.8,6.7-1.1L28.7,25.2z M4.5,18.7
			l-0.8-0.5c-0.1-0.1-0.2-0.1-0.3-0.2c-0.3-0.2-0.5-0.5-0.7-1c-0.1-0.1-0.1-0.2-0.1-0.4l-0.2-0.7L3,16.2c0.6,0.3,1,0.9,1.2,1.6
			L4.5,18.7z M21.4,7.9c-1.9,0-3.5-1.6-3.5-3.5c0-1.9,1.6-3.5,3.5-3.5c1.9,0,3.5,1.6,3.5,3.5C24.9,6.3,23.3,7.9,21.4,7.9z M21.4,1.7
			c-1.5,0-2.7,1.2-2.7,2.7c0,1.5,1.2,2.7,2.7,2.7c1.5,0,2.7-1.2,2.7-2.7C24.1,2.9,22.9,1.7,21.4,1.7z"/>
	</g>
</g>
<g>
	<path fill="#7AC143" d="M37.4,16c0.5,0,0.8-0.6,0.8-1.2c0-0.7-0.4-1.2-0.8-1.2c-0.5,0-0.8,0.6-0.8,1.2C36.6,15.5,37,16,37.4,16
		L37.4,16z M37.4,16"/>
	<path fill="#7AC143" d="M37.4,16.4c-0.7,0-1.2-0.7-1.2-1.6c0-0.9,0.5-1.6,1.2-1.6c0.7,0,1.2,0.7,1.2,1.6
		C38.6,15.7,38.1,16.4,37.4,16.4z M37.4,13.9c-0.2,0-0.4,0.4-0.4,0.9c0,0.5,0.3,0.9,0.4,0.9c0.2,0,0.5-0.4,0.5-0.9
		C37.9,14.3,37.7,13.9,37.4,13.9z"/>
</g>
<g>
	<path fill="#7AC143" d="M21.6,8.5c-1,0-2.1,0.2-3.2,0.6c-0.2,0.1-0.3,0.2-0.4,0.3C18,9.6,18,9.8,18.1,10c0.1,0.2,0.3,0.4,0.6,0.4
		c0.1,0,0.1,0,0.2,0c1-0.4,1.9-0.5,2.8-0.5c1.4,0,2.1,0.5,2.1,0.5c0.1,0.1,0.2,0.1,0.4,0.1c0.2,0,0.4-0.1,0.5-0.3
		c0.2-0.3,0.1-0.7-0.2-0.9C24.5,9.2,23.5,8.5,21.6,8.5L21.6,8.5z M21.6,8.5"/>
	<path fill="#7AC143" d="M18.7,10.8c-0.4,0-0.8-0.3-1-0.7c-0.1-0.2-0.1-0.5,0-0.8c0.1-0.3,0.3-0.4,0.6-0.5c1.2-0.4,2.3-0.6,3.3-0.6
		c2,0,3.1,0.8,3.1,0.8c0.4,0.3,0.6,0.9,0.3,1.4c-0.3,0.5-1,0.6-1.4,0.3l0,0c-0.1-0.1-0.8-0.4-1.9-0.4c-0.8,0-1.7,0.2-2.6,0.5
		C18.9,10.7,18.8,10.8,18.7,10.8z M21.6,8.9c-1,0-2,0.2-3.1,0.6c-0.1,0-0.1,0.1-0.2,0.1c0,0.1,0,0.1,0,0.2c0.1,0.1,0.2,0.2,0.4,0.2
		c1-0.4,2-0.6,2.9-0.6c1.1,0,2,0.3,2.3,0.5l0,0c0.1,0.1,0.3,0,0.4-0.1c0.1-0.1,0-0.3-0.1-0.4C24.3,9.5,23.3,8.9,21.6,8.9z"/>
</g>
</svg>
